<?xml version="1.0" encoding="UTF-8"?>
<!--
  Guhyakālī Yantra — AstroKalki
  ============================
  Geometrically faithful rendering of the Guhyakālī yantra as specified in
  the Mahākāla Saṃhitā, Guhyakālī Khaṇḍa (6 Internet Archive editions +
  Chaukhamba Surbharati 2-vol. printed ed., 917 pp.). Guhyakālī is the
  secret (guhya) Kālī — the ten-armed, sixty-four-form Goddess of the
  Mahākāla corpus, whose bīja-jāla hrīṁ klīṁ hūṁ unites the māyā-bīja
  (hrīṁ), the Kāma-bīja (klīṁ), and the weapon-bīja (hūṁ) into the
  highest Guhyakālī invocation.

  Construction per the source text (Mahākāla Saṃhitā, Guhyakālī Khaṇḍa,
  yantra-paddhati):
    - Outer square bhūpura with four cardinal gates
    - 16-petalled lotus ring (outer)
    - 8-petalled lotus ring (middle)
    - Inner complex (the 64-fold form, simplified):
        · A circle divided into 8 segments (the aṣṭa-dik-mātṛkā — the
          eight directional forms of Guhyakālī)
        · Within each segment, a bīja (aiṁ, hrīṁ, klīṁ, hūṁ, phaṭ, vauṁ,
          sauḥ, srīṁ) — one of the eight directional bījas
        · At the very center, a 10-pointed star (the daśa-bhuja-cakra,
          representing the ten arms of Guhyakālī)
        · At the center of the star, a 50-dot circle (the pañcāśad-akṣara-
          mālā — the garland of the fifty Sanskrit letters from "a" to "kṣa")
        · Central bindu bearing the three-bīja-jāla hrīṁ klīṁ hūṁ
    - Gold palette throughout, with rose accent mixed into the 8-segment
      ring to signal the fierce aspect
    - Gate bījas: East oṁ, South klīṁ, West hrīṁ, North hūṁ
    - Outer mantra ring: "oṁ hrīṁ klīṁ hūṁ guhyakālyai namaḥ"

  Note on geometry: The Mahākāla Saṃhitā's full yantra specification
  prescribes a 64-petal inner lotus and 64 small bījas arranged in 8 rings
  of 8 — a complexity that cannot be rendered legibly at 600×600. This
  rendering simplifies to the canonical core: 16+8 lotus rings, 8-segment
  directional circle, 10-pointed daśa-bhuja star, 50-letter garland, and
  the three-bīja bindu. Each element is textually attested; only the
  nesting density has been reduced.

  CAUTION: HIGH — dīkṣā-restricted Mahākāla-saṃhitā practice; the
  Guhyakālī-bīja-jāla is one of the most guarded invocations in the
  Śākta-Śaiva corpus and is not to be uttered or visualised without
  formal initiation into the Mahākāla lineage.
-->
<svg xmlns="http://www.w3.org/2000/svg"
     viewBox="0 0 600 600"
     width="600" height="600"
     font-family="'Noto Sans', 'Noto Serif Devanagari', serif">

  <!-- Background: lamp-soot black -->
  <rect x="0" y="0" width="600" height="600" fill="#0a0908"/>

  <!-- Outer circular mantra ring -->
  <circle cx="300" cy="300" r="295"
          fill="none"
          stroke="#c9985e"
          stroke-width="2"
          opacity="0.7"/>

  <!-- Mantra around the outer ring -->
  <defs>
    <path id="mantraRingGuhyakali"
          d="M 595,300 A 295,295 0 1,1 594.99,300"
          fill="none"/>
  </defs>
  <text font-size="14" fill="#e6c089" letter-spacing="3" opacity="0.9">
    <textPath href="#mantraRingGuhyakali" startOffset="0%">
      oṁ hrīṁ klīṁ hūṁ guhyakālyai namaḥ    oṁ hrīṁ klīṁ hūṁ guhyakālyai namaḥ    oṁ hrīṁ klīṁ hūṁ guhyakālyai namaḥ    oṁ hrīṁ klīṁ hūṁ guhyakālyai namaḥ    oṁ hrīṁ klīṁ hūṁ guhyakālyai namaḥ
    </textPath>
  </text>

  <!-- Outer bhūpura (square frame with four gates) -->
  <line x1="5"   y1="5"   x2="250" y2="5"   stroke="#c9985e" stroke-width="10"/>
  <line x1="350" y1="5"   x2="595" y2="5"   stroke="#c9985e" stroke-width="10"/>
  <line x1="595" y1="5"   x2="595" y2="250" stroke="#c9985e" stroke-width="10"/>
  <line x1="595" y1="350" x2="595" y2="595" stroke="#c9985e" stroke-width="10"/>
  <line x1="595" y1="595" x2="350" y2="595" stroke="#c9985e" stroke-width="10"/>
  <line x1="250" y1="595" x2="5"   y2="595" stroke="#c9985e" stroke-width="10"/>
  <line x1="5"   y1="595" x2="5"   y2="350" stroke="#c9985e" stroke-width="10"/>
  <line x1="5"   y1="250" x2="5"   y2="5"   stroke="#c9985e" stroke-width="10"/>

  <!-- Inner bhūpura (second ring) -->
  <rect x="55" y="55" width="490" height="490"
        fill="none" stroke="#9a7340" stroke-width="1.5" opacity="0.6"/>

  <!-- 16-petalled lotus ring (outer) -->
  <g transform="translate(300, 300)">
    <g fill="none" stroke="#c9985e" stroke-width="1.4" opacity="0.75">
      <g transform="rotate(0)"><ellipse cx="0" cy="-205" rx="22" ry="55"/></g>
      <g transform="rotate(22.5)"><ellipse cx="0" cy="-205" rx="22" ry="55"/></g>
      <g transform="rotate(45)"><ellipse cx="0" cy="-205" rx="22" ry="55"/></g>
      <g transform="rotate(67.5)"><ellipse cx="0" cy="-205" rx="22" ry="55"/></g>
      <g transform="rotate(90)"><ellipse cx="0" cy="-205" rx="22" ry="55"/></g>
      <g transform="rotate(112.5)"><ellipse cx="0" cy="-205" rx="22" ry="55"/></g>
      <g transform="rotate(135)"><ellipse cx="0" cy="-205" rx="22" ry="55"/></g>
      <g transform="rotate(157.5)"><ellipse cx="0" cy="-205" rx="22" ry="55"/></g>
      <g transform="rotate(180)"><ellipse cx="0" cy="-205" rx="22" ry="55"/></g>
      <g transform="rotate(202.5)"><ellipse cx="0" cy="-205" rx="22" ry="55"/></g>
      <g transform="rotate(225)"><ellipse cx="0" cy="-205" rx="22" ry="55"/></g>
      <g transform="rotate(247.5)"><ellipse cx="0" cy="-205" rx="22" ry="55"/></g>
      <g transform="rotate(270)"><ellipse cx="0" cy="-205" rx="22" ry="55"/></g>
      <g transform="rotate(292.5)"><ellipse cx="0" cy="-205" rx="22" ry="55"/></g>
      <g transform="rotate(315)"><ellipse cx="0" cy="-205" rx="22" ry="55"/></g>
      <g transform="rotate(337.5)"><ellipse cx="0" cy="-205" rx="22" ry="55"/></g>
    </g>
  </g>

  <!-- 8-petalled lotus ring (middle) -->
  <g transform="translate(300, 300)">
    <g fill="none" stroke="#e6c089" stroke-width="1.8" opacity="0.9">
      <g transform="rotate(0)"><ellipse cx="0" cy="-140" rx="18" ry="48"/></g>
      <g transform="rotate(45)"><ellipse cx="0" cy="-140" rx="18" ry="48"/></g>
      <g transform="rotate(90)"><ellipse cx="0" cy="-140" rx="18" ry="48"/></g>
      <g transform="rotate(135)"><ellipse cx="0" cy="-140" rx="18" ry="48"/></g>
      <g transform="rotate(180)"><ellipse cx="0" cy="-140" rx="18" ry="48"/></g>
      <g transform="rotate(225)"><ellipse cx="0" cy="-140" rx="18" ry="48"/></g>
      <g transform="rotate(270)"><ellipse cx="0" cy="-140" rx="18" ry="48"/></g>
      <g transform="rotate(315)"><ellipse cx="0" cy="-140" rx="18" ry="48"/></g>
    </g>
  </g>

  <!-- 8-segment circle (the aṣṭa-dik-mātṛkā — 8 directional forms) -->
  <!-- Outer boundary in gold-bright -->
  <circle cx="300" cy="300" r="75" fill="none" stroke="#e6c089" stroke-width="1.5" opacity="0.85"/>
  <!-- Inner boundary (slightly smaller, for visual depth) -->
  <circle cx="300" cy="300" r="38" fill="none" stroke="#9a7340" stroke-width="0.8" opacity="0.6"/>

  <!-- 8 segment dividing lines (rose accent — signals fierce aspect) -->
  <g stroke="#d99a8a" stroke-width="0.9" opacity="0.65">
    <line x1="300" y1="300" x2="369.3" y2="328.7"/>
    <line x1="300" y1="300" x2="328.7" y2="369.3"/>
    <line x1="300" y1="300" x2="271.3" y2="369.3"/>
    <line x1="300" y1="300" x2="230.7" y2="328.7"/>
    <line x1="300" y1="300" x2="230.7" y2="271.3"/>
    <line x1="300" y1="300" x2="271.3" y2="230.7"/>
    <line x1="300" y1="300" x2="328.7" y2="230.7"/>
    <line x1="300" y1="300" x2="369.3" y2="271.3"/>
  </g>

  <!-- 8 directional bījas (one per segment, at radius 55 — moved outward for legibility) -->
  <g font-size="11" fill="#e6c089" font-weight="bold" text-anchor="middle">
    <text x="355.0" y="304.0">aiṁ</text>
    <text x="338.9" y="343.9">hrīṁ</text>
    <text x="300.0" y="360.0">klīṁ</text>
    <text x="261.1" y="343.9">hūṁ</text>
    <text x="245.0" y="304.0">phaṭ</text>
    <text x="261.1" y="264.1">vauṁ</text>
    <text x="300.0" y="248.0">sauḥ</text>
    <text x="338.9" y="264.1">srīṁ</text>
  </g>

  <!-- 10-pointed star (daśa-bhuja-cakra — the 10 arms of Guhyakālī) -->
  <polygon points="332.0,300.0 318.1,305.9 325.9,318.8 311.2,315.4 309.9,330.4 300.0,319.0 290.1,330.4 288.8,315.4 274.1,318.8 281.9,305.9 268.0,300.0 281.9,294.1 274.1,281.2 288.8,284.6 290.1,269.6 300.0,281.0 309.9,269.6 311.2,284.6 325.9,281.2 318.1,294.1"
           fill="none" stroke="#e6c089" stroke-width="1.6" opacity="0.95"/>

  <!-- 50-letter garland (pañcāśad-akṣara-mālā) — 50 tiny dots around the central bindu -->
  <g>
      <circle cx="316.00" cy="300.00" r="0.5" fill="#e6c089" opacity="0.9"/>
      <circle cx="315.87" cy="302.01" r="0.5" fill="#e6c089" opacity="0.9"/>
      <circle cx="315.50" cy="303.98" r="0.5" fill="#e6c089" opacity="0.9"/>
      <circle cx="314.88" cy="305.89" r="0.5" fill="#e6c089" opacity="0.9"/>
      <circle cx="314.02" cy="307.71" r="0.5" fill="#e6c089" opacity="0.9"/>
      <circle cx="312.94" cy="309.40" r="0.5" fill="#e6c089" opacity="0.9"/>
      <circle cx="311.66" cy="310.95" r="0.5" fill="#e6c089" opacity="0.9"/>
      <circle cx="310.20" cy="312.33" r="0.5" fill="#e6c089" opacity="0.9"/>
      <circle cx="308.57" cy="313.51" r="0.5" fill="#e6c089" opacity="0.9"/>
      <circle cx="306.81" cy="314.48" r="0.5" fill="#e6c089" opacity="0.9"/>
      <circle cx="304.94" cy="315.22" r="0.5" fill="#e6c089" opacity="0.9"/>
      <circle cx="303.00" cy="315.72" r="0.5" fill="#e6c089" opacity="0.9"/>
      <circle cx="301.00" cy="315.97" r="0.5" fill="#e6c089" opacity="0.9"/>
      <circle cx="299.00" cy="315.97" r="0.5" fill="#e6c089" opacity="0.9"/>
      <circle cx="297.00" cy="315.72" r="0.5" fill="#e6c089" opacity="0.9"/>
      <circle cx="295.06" cy="315.22" r="0.5" fill="#e6c089" opacity="0.9"/>
      <circle cx="293.19" cy="314.48" r="0.5" fill="#e6c089" opacity="0.9"/>
      <circle cx="291.43" cy="313.51" r="0.5" fill="#e6c089" opacity="0.9"/>
      <circle cx="289.80" cy="312.33" r="0.5" fill="#e6c089" opacity="0.9"/>
      <circle cx="288.34" cy="310.95" r="0.5" fill="#e6c089" opacity="0.9"/>
      <circle cx="287.06" cy="309.40" r="0.5" fill="#e6c089" opacity="0.9"/>
      <circle cx="285.98" cy="307.71" r="0.5" fill="#e6c089" opacity="0.9"/>
      <circle cx="285.12" cy="305.89" r="0.5" fill="#e6c089" opacity="0.9"/>
      <circle cx="284.50" cy="303.98" r="0.5" fill="#e6c089" opacity="0.9"/>
      <circle cx="284.13" cy="302.01" r="0.5" fill="#e6c089" opacity="0.9"/>
      <circle cx="284.00" cy="300.00" r="0.5" fill="#e6c089" opacity="0.9"/>
      <circle cx="284.13" cy="297.99" r="0.5" fill="#e6c089" opacity="0.9"/>
      <circle cx="284.50" cy="296.02" r="0.5" fill="#e6c089" opacity="0.9"/>
      <circle cx="285.12" cy="294.11" r="0.5" fill="#e6c089" opacity="0.9"/>
      <circle cx="285.98" cy="292.29" r="0.5" fill="#e6c089" opacity="0.9"/>
      <circle cx="287.06" cy="290.60" r="0.5" fill="#e6c089" opacity="0.9"/>
      <circle cx="288.34" cy="289.05" r="0.5" fill="#e6c089" opacity="0.9"/>
      <circle cx="289.80" cy="287.67" r="0.5" fill="#e6c089" opacity="0.9"/>
      <circle cx="291.43" cy="286.49" r="0.5" fill="#e6c089" opacity="0.9"/>
      <circle cx="293.19" cy="285.52" r="0.5" fill="#e6c089" opacity="0.9"/>
      <circle cx="295.06" cy="284.78" r="0.5" fill="#e6c089" opacity="0.9"/>
      <circle cx="297.00" cy="284.28" r="0.5" fill="#e6c089" opacity="0.9"/>
      <circle cx="299.00" cy="284.03" r="0.5" fill="#e6c089" opacity="0.9"/>
      <circle cx="301.00" cy="284.03" r="0.5" fill="#e6c089" opacity="0.9"/>
      <circle cx="303.00" cy="284.28" r="0.5" fill="#e6c089" opacity="0.9"/>
      <circle cx="304.94" cy="284.78" r="0.5" fill="#e6c089" opacity="0.9"/>
      <circle cx="306.81" cy="285.52" r="0.5" fill="#e6c089" opacity="0.9"/>
      <circle cx="308.57" cy="286.49" r="0.5" fill="#e6c089" opacity="0.9"/>
      <circle cx="310.20" cy="287.67" r="0.5" fill="#e6c089" opacity="0.9"/>
      <circle cx="311.66" cy="289.05" r="0.5" fill="#e6c089" opacity="0.9"/>
      <circle cx="312.94" cy="290.60" r="0.5" fill="#e6c089" opacity="0.9"/>
      <circle cx="314.02" cy="292.29" r="0.5" fill="#e6c089" opacity="0.9"/>
      <circle cx="314.88" cy="294.11" r="0.5" fill="#e6c089" opacity="0.9"/>
      <circle cx="315.50" cy="296.02" r="0.5" fill="#e6c089" opacity="0.9"/>
      <circle cx="315.87" cy="297.99" r="0.5" fill="#e6c089" opacity="0.9"/>
  </g>

  <!-- Central bindu — solid black with the three-bīja-jāla hrīṁ klīṁ hūṁ -->
  <circle cx="300" cy="300" r="9" fill="#000000"/>
  <circle cx="300" cy="300" r="9" fill="none" stroke="#e6c089" stroke-width="1" opacity="0.85"/>
  <!-- Three-bīja-jāla stacked vertically inside the bindu (very small font) -->
  <text x="300" y="296" text-anchor="middle" font-size="6" fill="#e6c089" font-weight="bold">hrīṁ</text>
  <text x="300" y="302" text-anchor="middle" font-size="6" fill="#e6c089" font-weight="bold">klīṁ</text>
  <text x="300" y="308" text-anchor="middle" font-size="6" fill="#e6c089" font-weight="bold">hūṁ</text>

  <!-- Gate bīja labels -->
  <text x="570" y="306" text-anchor="end" font-size="22" fill="#e6c089" font-weight="bold">oṁ</text>
  <text x="306" y="585" text-anchor="middle" font-size="22" fill="#e6c089" font-weight="bold">klīṁ</text>
  <text x="30" y="306" text-anchor="start" font-size="22" fill="#e6c089" font-weight="bold">hrīṁ</text>
  <text x="306" y="30" text-anchor="middle" font-size="22" fill="#e6c089" font-weight="bold">hūṁ</text>

  <!-- Title and attribution -->
  <text x="300" y="630" text-anchor="middle"
        font-size="11" fill="#9a7340" letter-spacing="3" opacity="0.8">
    GUHYAKĀLĪ YANTRA · MAHĀKĀLA SAṂHITĀ (GUHYAKĀLĪ KHAṆḌA) · CAUTION: HIGH
  </text>

</svg>
